HIERARCHY
ROOT joint_0
{
	OFFSET 0.000000 0.000000 0.000000
	CHANNELS 6 Xposition Yposition Zposition Zrotation Yrotation Xrotation 
	JOINT joint_1
	{
		OFFSET 0.587158 0.057678 95.682007
		CHANNELS 3 Zrotation Yrotation Xrotation
		JOINT joint_2
		{
			OFFSET -7.116699 -0.219910 87.157959
			CHANNELS 3 Zrotation Yrotation Xrotation
			JOINT joint_3
			{
				OFFSET -5.892822 -0.290222 87.151001
				CHANNELS 3 Zrotation Yrotation Xrotation
				JOINT joint_4
				{
					OFFSET 5.544678 -0.099609 123.768066
					CHANNELS 3 Zrotation Yrotation Xrotation
					JOINT joint_5
					{
						OFFSET 41.981201 4.519775 84.257935
						CHANNELS 3 Zrotation Yrotation Xrotation
						End Site
						{
							OFFSET 0.000000 0.000000 0.000000
						}
					}
				}
				JOINT joint_6
				{
					OFFSET 3.940918 -26.976501 69.308105
					CHANNELS 3 Zrotation Yrotation Xrotation
					JOINT joint_7
					{
						OFFSET 4.776123 -152.592468 -16.842041
						CHANNELS 3 Zrotation Yrotation Xrotation
						JOINT joint_8
						{
							OFFSET 54.421875 -30.424072 -248.864014
							CHANNELS 3 Zrotation Yrotation Xrotation
							JOINT joint_9
							{
								OFFSET 42.120117 -33.387878 -236.524963
								CHANNELS 3 Zrotation Yrotation Xrotation
								End Site
								{
									OFFSET 0.000000 0.000000 0.000000
								}
							}
						}
					}
				}
				JOINT joint_10
				{
					OFFSET 2.312012 26.904114 69.425049
					CHANNELS 3 Zrotation Yrotation Xrotation
					JOINT joint_11
					{
						OFFSET 0.971436 152.197815 -20.626953
						CHANNELS 3 Zrotation Yrotation Xrotation
						JOINT joint_12
						{
							OFFSET 49.954102 28.991455 -249.970093
							CHANNELS 3 Zrotation Yrotation Xrotation
							JOINT joint_13
							{
								OFFSET 48.146973 19.598389 -236.919922
								CHANNELS 3 Zrotation Yrotation Xrotation
								End Site
								{
									OFFSET 0.000000 0.000000 0.000000
								}
							}
						}
					}
				}
			}
		}
	}
	JOINT joint_14
	{
		OFFSET 16.305664 -89.442932 -108.224976
		CHANNELS 3 Zrotation Yrotation Xrotation
		JOINT joint_15
		{
			OFFSET -22.282471 13.437134 -412.904968
			CHANNELS 3 Zrotation Yrotation Xrotation
			JOINT joint_16
			{
				OFFSET -45.426025 14.484802 -445.892029
				CHANNELS 3 Zrotation Yrotation Xrotation
				JOINT joint_17
				{
					OFFSET 173.389404 -9.944031 -76.473001
					CHANNELS 3 Zrotation Yrotation Xrotation
					End Site
					{
						OFFSET 0.000000 0.000000 0.000000
					}
				}
			}
		}
	}
	JOINT joint_18
	{
		OFFSET 13.392822 89.408875 -108.653992
		CHANNELS 3 Zrotation Yrotation Xrotation
		JOINT joint_19
		{
			OFFSET -29.032959 24.483521 -411.977966
			CHANNELS 3 Zrotation Yrotation Xrotation
			JOINT joint_20
			{
				OFFSET -30.530029 28.986328 -446.453018
				CHANNELS 3 Zrotation Yrotation Xrotation
				JOINT joint_21
				{
					OFFSET 170.330078 33.400757 -76.698997
					CHANNELS 3 Zrotation Yrotation Xrotation
					End Site
					{
						OFFSET 0.000000 0.000000 0.000000
					}
				}
			}
		}
	}
}
MOTION
Frames: 6
Frame Time: 0.016667
-2268.255371 895.866089 1058.233032 2.518170 -2.537691 0.498889 -0.284265 0.655743 -0.241726 -0.267925 -0.142831 0.062046 -0.274349 0.139709 -0.035599 -0.193534 -0.711136 0.463510 0.000000 0.000000 0.000000 -1.464541 2.197571 0.240275 0.522533 2.064712 2.952951 -0.172900 -1.655504 -2.290172 0.000000 0.000000 0.000000 1.013562 2.247136 0.286379 0.358571 2.155300 0.531588 0.018063 -0.309523 0.216662 0.000000 0.000000 0.000000 -0.826919 1.085191 -3.595409 -0.900151 5.487532 0.242916 -1.104914 -4.119510 -0.721674 0.000000 0.000000 0.000000 0.089162 1.740403 1.064128 0.002122 -0.147420 0.668126 0.165969 1.446807 -0.208945 0.000000 0.000000 0.000000 
-2267.992920 895.904175 1058.198975 2.522250 -2.547644 0.501765 -0.280653 0.655793 -0.249295 -0.263618 -0.141889 0.063746 -0.270226 0.139664 -0.036505 -0.198012 -0.698837 0.471148 0.000000 0.000000 0.000000 -1.473711 2.202617 0.243215 0.522961 2.068708 2.956280 -0.175648 -1.647672 -2.299329 0.000000 0.000000 0.000000 1.010304 2.257156 0.281135 0.360438 2.165917 0.537862 0.020750 -0.293599 0.223327 0.000000 0.000000 0.000000 -0.831945 1.101213 -3.597685 -0.905321 5.504806 0.241817 -1.110291 -4.111404 -0.723559 0.000000 0.000000 0.000000 0.093290 1.750431 1.050586 0.005517 -0.111625 0.684953 0.164900 1.403684 -0.200977 0.000000 0.000000 0.000000 
-2267.719971 895.921875 1058.161987 2.524340 -2.555394 0.504183 -0.276405 0.649300 -0.257252 -0.258637 -0.140705 0.064579 -0.265336 0.137655 -0.036880 -0.202280 -0.687216 0.478434 0.000000 0.000000 0.000000 -1.484380 2.208428 0.247685 0.522828 2.073255 2.957840 -0.177061 -1.643837 -2.304175 0.000000 0.000000 0.000000 1.010421 2.268721 0.278318 0.362164 2.177631 0.542259 0.022945 -0.280771 0.228854 0.000000 0.000000 0.000000 -0.836109 1.118327 -3.597613 -0.909634 5.516093 0.239159 -1.114768 -4.100468 -0.724886 0.000000 0.000000 0.000000 0.096082 1.767617 1.044972 0.007546 -0.091689 0.691113 0.163092 1.364795 -0.194168 0.000000 0.000000 0.000000 
-2267.429443 895.904968 1058.123047 2.521061 -2.557579 0.506237 -0.269835 0.630256 -0.268318 -0.250986 -0.139216 0.064835 -0.257735 0.136298 -0.037310 -0.208333 -0.677063 0.489446 0.000000 0.000000 0.000000 -1.499313 2.215823 0.256621 0.521576 2.078779 2.955784 -0.175612 -1.648770 -2.299924 0.000000 0.000000 0.000000 1.012198 2.281615 0.280359 0.364005 2.190496 0.545805 0.024462 -0.272433 0.232900 0.000000 0.000000 0.000000 -0.838124 1.134092 -3.595016 -0.911807 5.519479 0.235770 -1.117043 -4.088548 -0.725192 0.000000 0.000000 0.000000 0.096475 1.793405 1.052358 0.007525 -0.095130 0.679118 0.160014 1.332431 -0.189209 0.000000 0.000000 0.000000 
-2267.128418 895.866699 1058.082031 2.516523 -2.556927 0.507805 -0.262559 0.603145 -0.281121 -0.242293 -0.137301 0.066357 -0.249213 0.134373 -0.038232 -0.214589 -0.669393 0.501123 0.000000 0.000000 0.000000 -1.516939 2.223743 0.267401 0.519712 2.084470 2.951662 -0.172747 -1.657501 -2.290754 0.000000 0.000000 0.000000 1.015588 2.295504 0.284524 0.365787 2.204150 0.548108 0.025467 -0.266760 0.235523 0.000000 0.000000 0.000000 -0.839285 1.150427 -3.589936 -0.913097 5.516738 0.230724 -1.118404 -4.074275 -0.724963 0.000000 0.000000 0.000000 0.095332 1.825271 1.067543 0.005999 -0.114008 0.656840 0.156089 1.304679 -0.185533 0.000000 0.000000 0.000000 
-2266.833008 895.844604 1058.036011 2.513821 -2.559195 0.510699 -0.257342 0.578913 -0.291189 -0.235979 -0.134636 0.067007 -0.242950 0.131792 -0.038222 -0.218416 -0.664681 0.508254 0.000000 0.000000 0.000000 -1.529864 2.228863 0.277309 0.517740 2.087833 2.945024 -0.170695 -1.665942 -2.285923 0.000000 0.000000 0.000000 1.018783 2.309257 0.286539 0.367275 2.217657 0.548494 0.025783 -0.263628 0.235797 0.000000 0.000000 0.000000 -0.840407 1.168200 -3.587769 -0.914425 5.517259 0.224994 -1.119953 -4.060590 -0.724848 0.000000 0.000000 0.000000 0.094585 1.867173 1.076999 0.002493 -0.147163 0.641181 0.152177 1.284769 -0.183388 0.000000 0.000000 0.000000 
